<?xml version="1.0" encoding="utf-8"?>
<!-- Generator: Adobe Illustrator 27.0.1, SVG Export Plug-In . SVG Version: 6.00 Build 0)  -->
<svg version="1.1" id="Layer_1" xmlns="http://www.w3.org/2000/svg" xmlns:xlink="http://www.w3.org/1999/xlink" x="0px" y="0px"
	 viewBox="0 0 55 56" style="enable-background:new 0 0 55 56;" xml:space="preserve">
<style type="text/css">
	.st0{fill:url(#SVGID_1_);}
	.st1{fill:url(#SVGID_00000170242926426081469710000000156858033915730344_);}
	.st2{fill:url(#SVGID_00000014610727937621972430000005557078575489923469_);}
</style>
<linearGradient id="SVGID_1_" gradientUnits="userSpaceOnUse" x1="27.6882" y1="-2.1743" x2="27.6882" y2="50.0021" gradientTransform="matrix(1 0 0 -1 0 55.89)">
	<stop  offset="0.2552" style="stop-color:#00B3EB"/>
	<stop  offset="0.5521" style="stop-color:#3062FB"/>
	<stop  offset="1" style="stop-color:#BB10E0"/>
</linearGradient>
<path class="st0" d="M33.2,5.6c0,3.1-2.5,5.6-5.5,5.6c-3,0-5.5-2.5-5.5-5.6S24.6,0,27.7,0S33.2,2.5,33.2,5.6L33.2,5.6z"/>
<linearGradient id="SVGID_00000017510292610409505390000016190568682077960345_" gradientUnits="userSpaceOnUse" x1="27.5" y1="-2.1743" x2="27.5" y2="50.0021" gradientTransform="matrix(1 0 0 -1 0 55.89)">
	<stop  offset="0.2552" style="stop-color:#00B3EB"/>
	<stop  offset="0.5521" style="stop-color:#3062FB"/>
	<stop  offset="1" style="stop-color:#BB10E0"/>
</linearGradient>
<path style="fill:url(#SVGID_00000017510292610409505390000016190568682077960345_);" d="M4.7,33.6c0.7,0.1,1.4,0.1,2.1-0.1
	c0.6-0.2,1.3,0.1,1.8,0.5l2.1,2.1c0.5,0.5,0.7,1.1,0.5,1.8C11,38.6,11,39.3,11.1,40c0.3,2.5,2.3,4.4,4.7,4.8c0.7,0.1,1.4,0.1,2-0.1
	c0.6-0.2,1.3,0.1,1.8,0.5l2,2c0.5,0.5,0.7,1.2,0.5,1.8c-0.1,0.6-0.2,1.1-0.2,1.7c0.2,2.8,2.5,5.1,5.3,5.2c3.1,0.1,5.7-2.4,5.7-5.6
	c0-0.4,0-0.8-0.1-1.2c-0.1-0.7,0-1.3,0.5-1.8l2.1-2.2c0.5-0.5,1.1-0.7,1.8-0.5c0.6,0.2,1.3,0.2,2,0.1c2.4-0.3,4.4-2.3,4.7-4.8
	c0.1-0.7,0.1-1.4-0.1-2.1c-0.1-0.6,0.1-1.3,0.5-1.8l2.1-2.1c0.5-0.5,1.1-0.7,1.8-0.5c0.6,0.2,1.3,0.2,2.1,0.1
	c2.4-0.3,4.4-2.4,4.7-4.8c0.4-3.6-2.6-6.7-6.2-6.2c-2.4,0.3-4.4,2.2-4.8,4.7c-0.1,0.7-0.1,1.4,0.1,2.1c0.1,0.6-0.1,1.3-0.5,1.8
	l-2.2,2.2c-0.5,0.5-1.1,0.6-1.8,0.5c-0.5-0.1-1-0.1-1.6-0.1c-2.7,0.2-4.9,2.4-5.1,5.1c0,0.6,0,1.1,0.1,1.6c0.1,0.6,0,1.3-0.5,1.8
	l-2.2,2.3c-0.5,0.5-1.1,0.6-1.8,0.5c-0.4-0.1-0.8-0.1-1.1-0.1c-0.4,0-0.7,0-1.1,0.1c-0.6,0.1-1.3,0-1.7-0.5l-2.2-2.2
	c-0.5-0.5-0.6-1.1-0.5-1.8c0.1-0.5,0.1-1,0.1-1.6c-0.2-2.7-2.4-4.9-5.1-5.1c-0.5,0-1.1,0-1.6,0.1c-0.6,0.1-1.3,0-1.8-0.5L11.4,31
	c-0.5-0.5-0.7-1.1-0.5-1.8c0.1-0.6,0.2-1.3,0.1-2.1c-0.4-2.4-2.3-4.4-4.8-4.7C2.6,22-0.4,25.1,0,28.7C0.3,31.2,2.3,33.2,4.7,33.6
	L4.7,33.6z"/>
<linearGradient id="SVGID_00000042694465294074552940000010971679044970482095_" gradientUnits="userSpaceOnUse" x1="27.7542" y1="-2.1743" x2="27.7542" y2="50.0021" gradientTransform="matrix(1 0 0 -1 0 55.89)">
	<stop  offset="0.2552" style="stop-color:#00B3EB"/>
	<stop  offset="0.5521" style="stop-color:#3062FB"/>
	<stop  offset="1" style="stop-color:#BB10E0"/>
</linearGradient>
<path style="fill:url(#SVGID_00000042694465294074552940000010971679044970482095_);" d="M18.1,22.2c-0.6,0.2-1.3,0.2-2.1,0.1h0
	c-2.4-0.3-4.4-2.4-4.7-4.8c-0.4-3.6,2.6-6.7,6.2-6.2c2.4,0.3,4.4,2.3,4.8,4.7c0.1,0.7,0.1,1.4-0.1,2.1c-0.1,0.6,0.1,1.3,0.5,1.8
	l2.2,2.2c0.5,0.5,1.1,0.6,1.7,0.5c0.3-0.1,0.7-0.1,1.1-0.1c0.4,0,0.8,0,1.1,0.1c0.6,0.1,1.3,0,1.8-0.5l2.2-2.2
	c0.5-0.5,0.7-1.1,0.5-1.8c-0.1-0.6-0.2-1.3-0.1-2.1c0.4-2.5,2.3-4.4,4.8-4.7c3.6-0.4,6.6,2.6,6.2,6.2c-0.3,2.5-2.2,4.5-4.7,4.8
	c-0.7,0.1-1.4,0.1-2.1-0.1c-0.6-0.2-1.3,0.1-1.8,0.5l-2.1,2.2c-0.5,0.5-0.6,1.2-0.5,1.8c0.1,0.4,0.1,0.8,0.1,1.2
	c0,3.2-2.6,5.7-5.7,5.6c-2.8-0.1-5.1-2.4-5.3-5.2c0-0.6,0-1.2,0.2-1.7c0.2-0.7-0.1-1.3-0.5-1.8l-2-2C19.4,22.3,18.7,22.1,18.1,22.2z
	"/>
</svg>
